<svg xmlns="http://www.w3.org/2000/svg" width="72" height="72" viewBox="0 0 72 72"><defs><filter id="s" x="-20%" y="-20%" width="140%" height="140%"><feDropShadow dx="0" dy="2" stdDeviation="2" flood-color="#8FA9CA" flood-opacity=".10"/></filter></defs><rect x="2" y="2" width="68" height="68" rx="17" fill="#FBFDFF" stroke="#DCE8F6" stroke-width="1.2" filter="url(#s)"/><svg x="18" y="18" width="36" height="36" viewBox="0 0 24 24" fill="none" stroke="#1261D3" stroke-width="1.85" stroke-linecap="round" stroke-linejoin="round"><path d="M5 20V7a2 2 0 0 1 2-2h8a2 2 0 0 1 2 2v5"/><path d="M3 20h12M9 8h4M11 6v4"/><path d="M8 13h2M12 13h2M9 20v-4h4v4"/><path d="M18 21s3-2.4 3-5a3 3 0 1 0-6 0c0 2.6 3 5 3 5Z"/><circle cx="18" cy="16" r=".8"/></svg></svg>