<svg xmlns="http://www.w3.org/2000/svg" width="72" height="72" viewBox="0 0 72 72"><defs><filter id="s" x="-20%" y="-20%" width="140%" height="140%"><feDropShadow dx="0" dy="2" stdDeviation="2" flood-color="#8FA9CA" flood-opacity=".10"/></filter></defs><rect x="2" y="2" width="68" height="68" rx="17" fill="#FBFDFF" stroke="#DCE8F6" stroke-width="1.2" filter="url(#s)"/><svg x="18" y="18" width="36" height="36" viewBox="0 0 24 24" fill="none" stroke="#1261D3" stroke-width="2.05" stroke-linecap="round" stroke-linejoin="round"><path d="M4 19V8M20 19v-6a3 3 0 0 0-3-3H8a4 4 0 0 0-4 4v5"/><path d="M4 15h16M7 10V7a2 2 0 0 1 2-2h2a2 2 0 0 1 2 2v3"/><path d="M7 19v2M17 19v2"/></svg></svg>