<svg xmlns="http://www.w3.org/2000/svg" width="72" height="72" viewBox="0 0 72 72"><defs><filter id="s" x="-20%" y="-20%" width="140%" height="140%"><feDropShadow dx="0" dy="2" stdDeviation="2" flood-color="#8FA9CA" flood-opacity=".10"/></filter></defs><rect x="2" y="2" width="68" height="68" rx="17" fill="#FBFDFF" stroke="#DCE8F6" stroke-width="1.2" filter="url(#s)"/><svg x="18" y="18" width="36" height="36" viewBox="0 0 24 24" fill="none" stroke="#1261D3" stroke-width="2.05" stroke-linecap="round" stroke-linejoin="round"><path d="M12 2.8l2.3 1.4 2.7-.2 1.2 2.4 2.3 1.4-.6 2.7 1.2 2.4-1.9 2-.1 2.7-2.6.8-1.9 2-2.6-.9-2.6.9-1.9-2-2.6-.8-.1-2.7-1.9-2 1.2-2.4-.6-2.7 2.3-1.4L7 4l2.7.2L12 2.8Z"/><path d="m8.5 12.1 2.2 2.2 4.8-5"/></svg></svg>